<svg aria-hidden="true" style="position: absolute; width: 0; height: 0; overflow: hidden;" version="1.1" xmlns="http://www.w3.org/2000/svg" xmlns:xlink="http://www.w3.org/1999/xlink">
<defs>
<symbol id="icon-1314467" viewBox="0 0 32 32">
<path d="M11.537 0.81c-0.418 0.098-0.732 0.28-1.090 0.637-0.29 0.287-0.498 0.58-0.697 0.977-1.192 2.385-0.79 6.32 0.883 8.575 0.227 0.307 0.623 0.713 0.893 0.915 0.885 0.668 1.88 0.703 2.678 0.095 0.818-0.625 1.377-1.83 1.59-3.422 0.053-0.41 0.063-1.68 0.012-2.1-0.205-1.755-0.727-3.208-1.545-4.305-0.205-0.272-0.607-0.683-0.86-0.875-0.235-0.177-0.68-0.407-0.912-0.47-0.207-0.057-0.755-0.073-0.95-0.027z"></path>
<path d="M21.365 1.315c-0.777 0.153-1.59 0.748-2.262 1.653-0.865 1.163-1.45 2.7-1.67 4.395-0.070 0.54-0.063 1.745 0.012 2.235 0.175 1.117 0.547 1.973 1.105 2.527 0.477 0.48 1.078 0.703 1.688 0.63 1.453-0.18 2.885-1.765 3.65-4.040 0.635-1.888 0.703-3.875 0.183-5.39-0.508-1.478-1.538-2.243-2.705-2.010z"></path>
<path d="M5.237 9.475c-1.022 0.162-1.792 0.988-2.14 2.297-0.198 0.752-0.225 1.79-0.070 2.703 0.357 2.125 1.588 4.077 3.043 4.832 0.745 0.385 1.487 0.453 2.125 0.188 0.94-0.39 1.558-1.4 1.76-2.883 0.040-0.297 0.040-1.18-0.002-1.525-0.325-2.755-2.022-5.173-3.91-5.575-0.223-0.047-0.617-0.065-0.805-0.037z"></path>
<path d="M26.425 11.5c-0.9 0.193-1.782 0.825-2.515 1.805-0.795 1.065-1.33 2.455-1.485 3.855-0.040 0.365-0.032 1.15 0.012 1.503 0.305 2.37 1.915 3.508 3.738 2.648 0.977-0.462 1.863-1.415 2.495-2.683 1.2-2.4 1.122-5.213-0.183-6.515-0.55-0.55-1.308-0.775-2.063-0.613z"></path>
<path d="M15.563 15.947c-1.655 0.295-3.742 2.033-5.593 4.653-1.447 2.053-2.467 4.262-2.772 6.012-0.072 0.42-0.080 1.17-0.015 1.457 0.103 0.448 0.275 0.742 0.61 1.055 0.56 0.517 1.232 0.823 2.075 0.94 0.438 0.060 1.322 0.038 1.885-0.047 0.752-0.117 1.387-0.27 2.81-0.68 1.375-0.395 1.76-0.477 2.14-0.453 0.483 0.032 0.845 0.15 1.885 0.608 0.745 0.328 1.16 0.483 1.515 0.57 1.325 0.32 2.44-0.098 3.587-1.343 0.343-0.37 0.448-0.55 0.555-0.942 0.060-0.225 0.065-0.275 0.065-0.802 0-0.477-0.008-0.613-0.058-0.887-0.295-1.668-1.172-3.683-2.44-5.6-1.508-2.28-3.277-3.922-4.755-4.41-0.538-0.178-0.995-0.217-1.495-0.13z"></path>
</symbol>
</defs>
</svg>